<svg width="96" height="96" viewBox="0 0 96 96" fill="none" xmlns="http://www.w3.org/2000/svg">
<mask id="mask0_245_4476" style="mask-type:alpha" maskUnits="userSpaceOnUse" x="0" y="0" width="96" height="96">
<path d="M8 96C8 96 0 96 0 88C0 80 8 56 48 56C88 56 96 80 96 88C96 96 88 96 88 96H8ZM48 48C54.3652 48 60.4697 45.4714 64.9706 40.9706C69.4714 36.4697 72 30.3652 72 24C72 17.6348 69.4714 11.5303 64.9706 7.02944C60.4697 2.52856 54.3652 0 48 0C41.6348 0 35.5303 2.52856 31.0294 7.02944C26.5286 11.5303 24 17.6348 24 24C24 30.3652 26.5286 36.4697 31.0294 40.9706C35.5303 45.4714 41.6348 48 48 48Z" fill="#DADADA"/>
</mask>
<g mask="url(#mask0_245_4476)">
<circle cx="48" cy="36" r="60" fill="#DADADA"/>
</g>
</svg>
